<?xml version="1.0" encoding="UTF-8"?>
<svg width="190px" height="52px" viewBox="0 0 2364 647" version="1.1" xmlns="http://www.w3.org/2000/svg" xmlns:xlink="http://www.w3.org/1999/xlink">
    <!-- Generator: Sketch 58 (84663) - https://sketch.com -->
    <title>5e7e1b0edcdd8d002217fa92</title>
    <desc>Created with Sketch.</desc>
    <g id="Page-1" stroke="none" stroke-width="1" fill="none" fill-rule="evenodd">
        <g id="5e7e1b0edcdd8d002217fa92" fill="#FFFFFF">
            <path d="M86.9604309,160.551062 C93.80777,155.148142 108.871744,147.042911 128.728251,151.095101 C140.368124,153.796561 145.846168,167.305562 138.998829,176.761523 C133.520785,184.191388 130.782194,188.243578 129.412899,190.269673 C128.728251,191.621254 128.043604,192.296619 126.674308,193.647349 L115.033573,203.778674 C111.610334,207.155499 106.816938,208.50708 102.024405,207.830864 L91.0691793,207.830864 C87.6450786,207.830864 84.906574,206.480134 82.1677246,204.454039 C77.3747597,200.401849 74.6359102,193.647349 76.6900257,187.568213 L81.4829907,170.007022 C81.4829907,165.954832 83.5371062,163.252522 86.9604309,160.551062 Z" id="Path" fill-rule="nonzero"></path>
            <path d="M280.03143,0.542978062 L259.591405,8.03615993 C258.228852,8.71738729 256.866298,10.0797391 255.502886,11.4421766 L224.161571,80.2431292 L224.161571,80.924348 L221.436463,88.4177546 L202.358992,138.825886 C202.358992,139.507019 201.676857,140.188152 201.676857,140.870143 L183.96194,164.03038 C183.280663,164.711513 183.280663,165.392646 182.599386,166.754912 L178.511725,181.741554 C178.511725,182.422687 178.511725,182.422687 177.830448,183.10382 L166.247881,205.583783 C166.247881,206.264916 165.565746,206.264916 165.565746,206.946049 L130.818047,245.774061 C130.818047,245.774061 130.13677,246.455194 130.13677,247.136327 C128.773358,249.861717 121.279312,262.122969 121.960589,262.122969 C122.641866,262.122969 121.960589,281.196408 121.960589,285.284064 C121.960589,285.965197 121.960589,285.965197 121.960589,286.64633 L115.146961,320.706412 L115.146961,321.387545 L113.784407,335.692195 C113.784407,337.054461 113.10313,339.098718 111.739718,339.779851 L58.5953959,391.551106 C56.5513934,393.594505 54.507391,393.594505 51.7820257,392.913372 L24.5282873,384.738918 L23.8470104,384.738918 L14.9895518,383.376652 C14.3081891,383.376652 13.6268263,383.376652 12.9454635,383.376652 L0,386.101184 L2.72536526,392.913372 C3.40671086,394.275638 4.76939349,395.637904 6.13207612,396.319037 L26.5723756,405.855757 C27.2536526,406.53689 27.9350153,406.53689 28.6163781,406.53689 L53.8260282,408.580289 C55.1887537,408.580289 56.5513934,408.580289 57.9140332,407.218023 L130.818047,359.534424 C131.499324,358.853291 132.861878,358.172158 133.543155,356.809892 L137.630817,348.635438 C137.630817,348.635438 137.630817,347.954305 138.312094,347.954305 L149.895518,313.213091 C149.895518,312.531958 149.895518,312.531958 149.895518,311.850825 L153.98318,284.602931 C153.98318,283.239807 154.664457,281.877541 156.027011,280.515275 L161.478085,275.066211 C162.840638,273.703087 164.884469,273.021954 166.929158,273.021954 L183.280663,273.703087 C185.325352,273.703087 186.687906,274.38422 188.05046,275.747344 L195.545365,283.921798 C196.907919,285.284064 197.589196,286.64633 197.589196,288.689729 L197.589196,292.777385 C197.589196,294.139651 197.589196,294.820784 196.907919,295.501917 L180.555556,328.880865 C179.874279,330.243131 179.874279,330.924264 179.874279,332.28653 L181.236833,347.273172 C181.236833,347.954305 181.236833,348.635438 181.918109,349.997704 L216.666667,424.248064 C216.666667,424.248064 216.666667,424.929197 217.347944,424.929197 L230.975199,447.409159 C230.975199,448.090292 231.656476,448.771425 231.656476,448.771425 L237.106692,466.482599 L237.106692,467.163732 L241.876488,497.81729 C241.876488,498.498423 242.557765,499.179556 242.557765,499.861547 L266.405033,543.457491 C266.405033,544.138624 267.08631,544.138624 267.08631,544.820615 L285.482504,565.937453 C286.163781,566.618586 286.163781,567.299719 286.845058,567.980852 L294.339963,585.010893 C295.02124,585.692026 295.02124,587.054292 295.02124,587.735425 L294.339963,616.346442 C294.339963,617.027575 294.339963,617.708708 294.339963,618.389841 L300.471455,642.231212 C301.15359,644.956602 303.878698,647.000001 307.285083,647.000001 L314.098711,647.000001 C317.505095,647.000001 320.231061,644.956602 320.912338,641.550079 L325,624.520038 C325,623.838905 325,623.157772 325,623.157772 L325,592.504214 C325,591.141948 325,589.779682 324.318723,589.097691 L307.285083,560.487531 C306.603806,559.806398 306.603806,559.125265 306.603806,558.444132 L295.702517,508.717134 C295.702517,508.035143 295.02124,507.35401 295.02124,506.672877 L278.668876,479.424984 C277.987599,478.743851 277.987599,478.062718 277.987599,476.700452 L273.217803,446.728026 L261.635236,399.724702 L261.635236,399.043569 L244.601596,347.954305 L244.601596,347.273172 L239.151381,335.692195 L248.008839,352.722236 C250.733947,357.491025 256.866298,358.172158 260.272682,353.403369 L262.99779,349.316571 L256.866298,363.621222 C256.185021,364.984346 256.185021,367.027745 256.866298,368.390011 L258.228852,372.476809 C260.272682,378.607864 269.130141,378.607864 271.173972,372.476809 L277.306323,356.128759 C277.306323,355.446768 277.306323,354.765635 277.987599,354.765635 L283.438673,304.357504 C283.438673,303.676371 283.438673,302.995238 283.438673,302.314105 L273.217803,259.398437 C273.217803,258.717304 272.536526,258.036171 272.536526,257.355038 L253.459055,222.613823 C253.459055,221.93269 252.777778,221.251557 252.096501,221.251557 L227.567956,198.090462 C226.886679,197.409329 226.205402,196.728196 226.205402,196.047063 L219.391775,181.060421 C218.710498,179.698155 218.710498,177.654756 219.391775,175.610499 L227.567956,154.493661 L227.567956,153.812528 L235.062861,124.521235 C235.062861,123.840102 235.062861,123.840102 235.744138,123.158969 L248.008839,95.9110755 C248.008839,95.2290846 248.008839,95.2290846 248.690116,94.5479516 L260.272682,49.5892276 L266.405033,25.7473422 C267.08631,23.7036858 268.448864,22.3413341 269.811418,20.9788965 L286.163781,12.8045284 C286.845058,12.1233096 288.207612,11.4421766 288.888889,10.7609579 C292.296132,5.99256363 286.845058,-2.18181301 280.03143,0.542978062 Z" id="Path" fill-rule="nonzero"></path>
            <polygon id="Path" fill-rule="nonzero" points="200.727195 398.000001 191.181756 452.588337 175.499657 483.293954 172.772634 503.764365 174.136145 546.752917 172.772634 563.129589 161.181069 566.541038 158.454046 577.459393 159.817557 591.788337 153 619.082505 153 630.000001 164.590706 630.000001 172.090878 616.353346 188.454733 590.423758 195.954046 552.894384 209.590878 516.729589 215.044924 486.705403 219.818073 471.011879 228 453.952917"></polygon>
            <text id="JUST-DANCE" font-family="Ubuntu-Bold, Ubuntu" font-size="300" font-weight="bold" letter-spacing="5">
                <tspan x="501" y="429">JUST DANCE</tspan>
            </text>
            <text id="studio-in-New-York" font-family="Ubuntu-Bold, Ubuntu" font-size="100" font-weight="bold" letter-spacing="25" fill-opacity="0.492788462">
                <tspan x="501" y="629">STUDIO IN NEW YORK</tspan>
            </text>
        </g>
    </g>
</svg>