<svg xmlns="http://www.w3.org/2000/svg" xmlns:xlink="http://www.w3.org/1999/xlink" version="1.1" x="0px" y="0px" viewBox="0 0 100 100" enable-background="new 0 0 100 100" xml:space="preserve" style="max-width:100%" height="100%"><path fill="#fff" d="M57.111,22.598c0.561,0.203-0.232,0.862-0.184,1.639c0.049,0.776,0.801,0.665,0.972,0.64  c0.174-0.024,0.235,0.247,0.358,0.271s0.344-0.135,0.344-0.135l0.112,0.115c0.072,0.115,0.332,0.083,0.443,0.014  c0.11-0.068,0.136,0.13,0.136,0.13c-0.112,0.479,0.295,0.492,0.381,0.479c0.086-0.012,0.973-0.442,0.973-0.442  s0.283-0.284,0.518-0.111s0.615,0.234,0.8,0.222c0.186-0.013,0.764,0,0.764,0c0.199,0.185,0.888,0.335,0.888,0.335  c0.738,0.445,1.182-0.335,1.182-0.335c0.961-0.333,0.814-1.182,0.814-1.182c2.093-2.845-0.456-5.191-0.456-5.191  c1.328-0.363,0.086-2.445,0-2.629s-0.814-0.505-1.011-0.616c-0.197-0.111-1.047-0.887-2.217-0.284  c-1.17,0.604-1.158,2.168-1.158,2.168c-1.096-0.407-1.983,1.305-1.983,1.305l-0.185-0.307l-0.159-0.086l-0.818,0.024  c0,0-0.667-1.369-3.933-1.615c-3.264-0.246-10.041,4.002-10.041,4.002s-0.632,0.808-1.615-0.772  c-0.983-1.58-3.967-2.599-5.723-2.036c-1.755,0.562-3.616-0.036-4.073-0.141c-0.456-0.105-1.509-0.036-1.509-0.036  s-2.037-0.315-2.949-0.491c-0.913-0.175-1.51-0.772-1.51-0.772s0.07-1.159-0.175-2.317c-0.246-1.159-3.722-6.601-3.722-6.601  c0.387-0.772-0.351-2.246-0.772-3.054c-0.421-0.808-0.141-2.072-0.141-2.072c-1.404-1.896-3.44-1.299-3.44-1.299  c-0.807,1.826,1.334,5.898,1.58,6.214C19.847,7.946,19.953,8.333,20.41,9c0.456,0.667,0.456,3.897,0.456,3.897  c-0.386-0.035-3.16-2.668-3.265-2.844c-0.105-0.176-1.159-0.702-1.861-1.404c-0.702-0.702-1.404-1.369-1.544-1.409  c-0.141-0.04-0.772,0.041-1.826,0.004C11.316,7.209,11,7.385,11,7.385c0.035,1.65,2.387,3.266,3.02,3.581  c0.631,0.316,0.597,0.773,2.457,1.545c1.861,0.772,5.021,5.125,5.021,5.125s0.386-0.28,0.28,0.983  c-0.106,1.264,1.65,2.809,1.65,2.809c0.474,1.58,2.58,1.79,2.58,1.79c0.58,1.37,2.002,1.159,2.002,1.159s1.632-0.158,1.949,1.211  c0.315,1.369,2,4.423,3.001,5.792s2.159,2.897,2.844,4.477c0.685,1.58,3.687,4.318,3.687,4.318s-1.054,1.738-1.527,2.633  c-0.475,0.895-0.211,3.16-0.211,3.16c-0.895,3.528,0,5.161,0,5.583c0,0.421,0.948,1.896,0.948,1.896s0.421,1.369,1.054,2.896  c0.631,1.527,2.159,2.949,2.159,2.949s0,0-0.053,0.21c-0.053,0.211-0.158,1.316,0.369,2.266c0.527,0.947,0.737,2.159,0.737,2.528  c0,0.366,0.843,4.266,1.632,7.056c0.79,2.791,2.896,8.636,2.896,8.636l0.526-0.104c1.528,7.004,1.264,11.797,1.159,12.691  c-0.106,0.896-0.369,2.896-0.527,4.108c-0.157,1.21-1.79,0.843-1.79,0.843C46.39,98.843,48.496,99,49.707,99  c1.211,0,0.843-2.527,2.844-3.738c2.001-1.213,1.527-2.528,0.896-3.003c-0.632-0.474-0.896-2.106-0.947-3.687  c-0.054-1.579,0.683-3.422,0.789-5.371c0.105-1.948-0.896-4.37-0.896-4.37l1.316-0.528l-1.896-11.164  c1.265,1.158,9.638,5.268,9.638,5.268l1.686-2.424c1.001-0.104,9.902,4.267,11.112,5.425c1.21,1.159,2.105,1.844,4.527,3.528  c2.423,1.686,4.898,0.791,4.898,0.791s-0.315-1.845-1.054-2.687c-0.736-0.844-2.737-1.948-3.424-3.213  c-0.683-1.263-1.263-1.79-2.896-1.475c-1.631,0.316-4.318-2.634-6.688-4.635c-2.37-2.001-4.634-2.053-4.634-2.053  c-0.105-0.422-1.737-1.002-4.317-1.368c-2.582-0.369-8.11-6.059-8.11-6.059c-0.896-3.686-4.108-4.581-4.108-4.581  s-0.579-0.579-0.947-1.368c-0.369-0.791,0.264-9.427,0.422-10.744c0.158-1.316,0.473-1.158,0.473-1.158  c3.897,0.263,4.529-1.685,5.266-2.37c0.737-0.685,0.053-2.896,0-3.054c-0.052-0.158,0-0.948-0.368-1.896  c-0.369-0.948-0.264-1.579-1.001-1.579c-0.574,0-1.178,0.246-1.418,0.356c0.749-0.56,2.953-5.804,3.384-6.237  c0.457-0.457,2.423-2.738,2.423-2.738S56.96,22.543,57.111,22.598z M46,31.118v0.843c-1,0.052-2.544,0.711-2.544,0.711  c-0.526,0.64,0.545,2.799,0.545,2.799c-0.492,0.211-1,1.053-1,1.053l-0.992-0.491c0,0-2.743-2.949-2.954-3.23  s-1.757-3.581-3.021-4.284c-0.316-0.175-0.787-0.583-1.313-1.097l0.373,0.114l1.763,0.263c1.264,0.421,7.16-0.527,8.951-0.737  c1.791-0.21,2.999-0.685,2.999-0.685s1.73,0,1.467,0.263c-0.263,0.264-1.434,2.159-1.908,3.002s-1.546,1.713-1.546,1.713  C46.367,31.23,46,31.118,46,31.118z" style=""></path></svg>