<svg xmlns="http://www.w3.org/2000/svg" xmlns:xlink="http://www.w3.org/1999/xlink" version="1.1" x="0px" y="0px" viewBox="0 0 100 100" enable-background="new 0 0 100 100" xml:space="preserve" style="max-width:100%" height="100%"><path d="M53.709,92.981c0.224-0.039,0.504,0.809,0.642,1.284c0.142,0.476,0.561,0.75,0.422,1.422  c-0.14,0.673,0.334,1.117,1.116,1.172c0.781,0.059,2.261-0.108,3.323-0.277c1.062-0.172,1.534-0.582,1.759-0.444  c0.223,0.137,0.614,0.248,0.754,0.109c0.138-0.144,0.308-0.56-0.196-1.062c-0.501-0.503-0.501-0.223-0.977-0.139  c-0.473,0.084-0.587-0.084-0.727-0.337c-0.14-0.248-0.056-0.139-0.587-0.083c-0.53,0.056-0.642-0.447-1.031-0.278  c-0.392,0.169-0.419,0.25-0.504-0.249c-0.085-0.507,0.057-0.226-0.112-1.232c-0.167-1.008-0.585-3.071-0.865-3.992  c-0.279-0.923-0.392-1.701-0.308-2.121c0.084-0.422,0-1.175-0.084-1.925c-0.082-0.757-0.349-1.275-0.068-1.848  c0.278-0.568-0.042-0.027,0.181-1.047c0.224-1.021-0.14-1.143,0-1.812c0.141-0.67-0.082-1.313-0.168-1.636  c-0.084-0.322,0.099-1.425,0.111-1.607c0.017-0.182,0.072,0.465,0.544-0.435c0.476-0.891,0.63-0.528,0.77-0.707  c0.14-0.184,0.265,0.168,0.069,0.445c-0.194,0.279-0.518,0.848-0.405,1.409c0.112,0.561,0.211,0.996,0.405,1.489  c0.195,0.51,0.531,0.633,0.686,0.715c0.153,0.083-0.043,0.702,0.108,0.979c0.156,0.278,0.336,0.421,0.772,0.359  c0.431-0.049,0.977-0.259,1.047,0.062c0.067,0.322,1.24,0.767,1.785,0.839c0.546,0.067,2.095-0.21,2.906-0.644  c0.808-0.431,1.843-1.219,2.078-2.582c0.237-1.372,0.686-2.111,0.237-2.863c-0.447-0.756-0.237-1.144,0.127-0.993  c0.362,0.154,0.683,0.811,1.496,0.842c0.807,0.024,0.752,0.539,1.521,0.707c0.767,0.173,0.921,0.925,1.451,0.936  c0.53,0.015,0.769,0.435,1.131,0.227c0.362-0.212,1.104,0.681,0.907,1.146c-0.196,0.459-0.837,1.159-0.701,1.645  c0.143,0.493-0.261,0.673-0.581,1.648c-0.323,0.979-0.744,1.998-0.854,2.515c-0.112,0.517-0.686,0.755-1.201,0.798  c-0.517,0.04-1.018,0.153-1.731,0.623c-0.713,0.48-0.879,0.812-1.116,1.411c-0.236,0.601-0.197,1.24,0.109,1.228  c0.311-0.009,0.673-0.138,0.686-0.275c0.015-0.144,0.225,0.374,0.406,0.504c0.18,0.122,0.571,0.122,0.697-0.403  c0.126-0.537,0.152,0.136,0.42,0.175c0.265,0.045,0.612,0.113,0.878-0.32c0.266-0.43,0.74-0.418,0.671-0.043  c-0.07,0.376,0.124,0.477,0.391,0.354c0.267-0.129,0.419-0.166,0.6-0.41c0.183-0.237,0.853-0.245,0.95-0.681  c0.1-0.434,0.336-0.99,0.601-1.352c0.266-0.364,0.333-0.188,0.853-0.59c0.517-0.406,0.852-2.12,1.282-3.012  c0.435-0.898,0.938-1.302,1.158-2.014c0.225-0.717,0.575-1.471,0.897-2.628c0.317-1.154,0.067-2.036-0.353-2.329  c-0.416-0.294-1.269-0.7-1.966-1.256c-0.7-0.559-2.836-1.218-4.022-2.126c-1.188-0.905-2.165-1.062-2.792-1.575  c-0.628-0.516-1.843-1.552-2.247-2.596c-0.406-1.049-1.188-3.452-1.748-4.597c-0.557-1.143-0.949-1.593-1.213-3.112  c-0.268-1.524-0.489-1.996-1.3-2.291c-0.811-0.291-0.99-0.754-0.895-1.467c0.1-0.711,0.602-0.863,0.309-1.825  c-0.294-0.965-0.824-1.902-0.753-2.696c0.068-0.8,0.125-1.479,0.753-2.417c0.63-0.939,1.578-4.372,1.913-6.031  c0.335-1.663,0.992-2.768,1.621-4.44c0.626-1.677,0.906-1.356,0.586-2.222c-0.322-0.865-0.684-0.517-0.281-1.913  c0.406-1.396,0.042-0.979,0.575-2.125c0.528-1.142,3.07-3.921,4.032-6.981c0.967-3.055,2.642-5.987,2.933-7.37  c0.295-1.384,1.676-1.511,2.178-2.429c0.504-0.926,2.013-1.381,3.018-1.51c1.005-0.122,2.471-1.762,2.011-2.471  c-0.463-0.71-4.188-1.636-5.361-0.753c-1.173,0.876-2.974,0.501-3.979,0.081c-1.006-0.414-2.681,1.26-2.555,2.14  c0.124,0.881,0.92,2.302,0.293,3.769c-0.629,1.465-2.054,4.273-3.772,6.074c-1.715,1.799-2.512,2.762-3.139,4.775  c-0.628,2.01-1.426,2.976-2.01,4.272c-0.589,1.299-0.546,1.843-1.301,2.09c-0.754,0.258-1.844,0.046-1.719,1.724  c0.126,1.674-0.459,2.346-1.422,4.981c-0.965,2.642-1.551,3.647-2.388,4.988c-0.839,1.341-1.298,1.967-2.304,2.22  c-1.007,0.248-3.311,0.919-5.238,2.006c-1.927,1.096-3.77,1.386-5.361,1.509c-1.593,0.128-4.775,0.629-5.78,0.798  c-1.006,0.17-1.634,0.501-1.801,1.17c-0.167,0.674-0.212,1.054-1.634,1.054c-1.426,0-5.864-0.632-9.97,1.334  c-4.104,1.973-4.858,1.891-6.366,1.303c-1.509-0.586-4.064-2.221-4.985-0.757c-0.921,1.467,0.125,3.772-0.88,4.694  c-1.005,0.921-1.549,2.052-1.884,3.854c-0.336,1.799-0.545,4.019,0.964,3.351c1.507-0.67,2.345-1.26,2.932-2.431  c0.586-1.175,1.508-1.635,2.052-2.643c0.544-0.998,2.137-2.512,3.393-2.426c1.257,0.084,9.927-0.254,11.77-1.005  c1.842-0.758,2.724-0.083,4.147,0.082c1.425,0.167,2.053-0.251,2.597-0.583c0.545-0.338,2.305-0.631,4.356-0.089  c2.053,0.548,4.064,0,5.194-0.415c1.133-0.421,2.976-0.171,3.562-0.672c0.586-0.499,2.053-1.051,1.426-0.292  c-0.63,0.752-1.26,0.793-0.964,1.55c0.293,0.752,0.503,1.005,1.297,0.752c0.798-0.251,0.838-0.458,1.132,0.547  c0.295,1.005,0.043,1.757,0.63,2.219c0.584,0.461,0.166,0.504,0.083,1.172c-0.083,0.672-0.21,1.364,0.187,2.14  c0.397,0.774-0.312,0.939,0.021,1.989c0.337,1.046,0,1.151,0.421,2.03c0.419,0.879,0.25,0.796,0.146,1.675  c-0.107,0.883-0.463,2.448-0.439,3.435c0.018,0.984,0.146,1.654-0.189,2.723c-0.336,1.068-0.42,2.638-0.316,3.749  c0.106,1.109-0.291,1.197,0.148,1.892c0.439,0.683,0.357,2.026,0.588,3.263c0.229,1.232,0.856,2.097,0.856,2.764  c0,0.675,0.104,1.505,0.146,1.762C53.422,92.318,53.387,93.032,53.709,92.981" style="" fill="#fff"></path></svg>