<svg xmlns="http://www.w3.org/2000/svg" xmlns:xlink="http://www.w3.org/1999/xlink" version="1.1" x="0px" y="0px" viewBox="0 0 100 100" style="enable-background:new 0 0 100 100;max-width:100%" xml:space="preserve" height="100%"><path d="M38.4,27.2c1-0.8,3.2-2,6.1-1.4c1.7,0.4,2.5,2.4,1.5,3.8c-0.8,1.1-1.2,1.7-1.4,2c-0.1,0.2-0.2,0.3-0.4,0.5l-1.7,1.5  c-0.5,0.5-1.2,0.7-1.9,0.6L39,34.2c-0.5,0-0.9-0.2-1.3-0.5h0c-0.7-0.6-1.1-1.6-0.8-2.5l0.7-2.6C37.6,28,37.9,27.6,38.4,27.2z" style="" fill="#fff"></path><path d="M66.7,3.8l-3,1.1c-0.2,0.1-0.4,0.3-0.6,0.5l-4.6,10.1c0,0,0,0.1,0,0.1l-0.4,1.1l-2.8,7.4c0,0.1-0.1,0.2-0.1,0.3l-2.6,3.4  c-0.1,0.1-0.1,0.2-0.2,0.4l-0.6,2.2c0,0.1,0,0.1-0.1,0.2l-1.7,3.3c0,0.1-0.1,0.1-0.1,0.2l-5.1,5.7c0,0-0.1,0.1-0.1,0.2  c-0.2,0.4-1.3,2.2-1.2,2.2c0.1,0,0,2.8,0,3.4c0,0.1,0,0.1,0,0.2l-1,5c0,0,0,0.1,0,0.1l-0.2,2.1c0,0.2-0.1,0.5-0.3,0.6l-7.8,7.6  c-0.3,0.3-0.6,0.3-1,0.2l-4-1.2c0,0-0.1,0-0.1,0L27.8,60c-0.1,0-0.2,0-0.3,0l-1.9,0.4l0.4,1c0.1,0.2,0.3,0.4,0.5,0.5l3,1.4  c0.1,0.1,0.2,0.1,0.3,0.1l3.7,0.3c0.2,0,0.4,0,0.6-0.2l10.7-7c0.1-0.1,0.3-0.2,0.4-0.4l0.6-1.2c0,0,0-0.1,0.1-0.1l1.7-5.1  c0-0.1,0-0.1,0-0.2l0.6-4c0-0.2,0.1-0.4,0.3-0.6l0.8-0.8c0.2-0.2,0.5-0.3,0.8-0.3l2.4,0.1c0.3,0,0.5,0.1,0.7,0.3l1.1,1.2  c0.2,0.2,0.3,0.4,0.3,0.7v0.6c0,0.2,0,0.3-0.1,0.4L52.1,52C52,52.2,52,52.3,52,52.5l0.2,2.2c0,0.1,0,0.2,0.1,0.4l5.1,10.9  c0,0,0,0.1,0.1,0.1l2,3.3c0,0.1,0.1,0.2,0.1,0.2l0.8,2.6c0,0,0,0.1,0,0.1l0.7,4.5c0,0.1,0.1,0.2,0.1,0.3l3.5,6.4  c0,0.1,0.1,0.1,0.1,0.2l2.7,3.1c0.1,0.1,0.1,0.2,0.2,0.3l1.1,2.5c0.1,0.1,0.1,0.3,0.1,0.4l-0.1,4.2c0,0.1,0,0.2,0,0.3l0.9,3.5  c0.1,0.4,0.5,0.7,1,0.7h1c0.5,0,0.9-0.3,1-0.8l0.6-2.5c0-0.1,0-0.2,0-0.2v-4.5c0-0.2,0-0.4-0.1-0.5l-2.5-4.2  c-0.1-0.1-0.1-0.2-0.1-0.3l-1.6-7.3c0-0.1-0.1-0.2-0.1-0.3l-2.4-4c-0.1-0.1-0.1-0.2-0.1-0.4l-0.7-4.4L64,62.4c0,0,0-0.1,0-0.1  l-2.5-7.5c0,0,0-0.1,0-0.1L60.7,53l1.3,2.5c0.4,0.7,1.3,0.8,1.8,0.1l0.4-0.6l-0.9,2.1c-0.1,0.2-0.1,0.5,0,0.7l0.2,0.6  c0.3,0.9,1.6,0.9,1.9,0l0.9-2.4c0-0.1,0-0.2,0.1-0.2l0.8-7.4c0-0.1,0-0.2,0-0.3l-1.5-6.3c0-0.1-0.1-0.2-0.1-0.3l-2.8-5.1  c0-0.1-0.1-0.2-0.2-0.2L59,32.8c-0.1-0.1-0.2-0.2-0.2-0.3l-1-2.2c-0.1-0.2-0.1-0.5,0-0.8l1.2-3.1c0,0,0-0.1,0-0.1l1.1-4.3  c0-0.1,0-0.1,0.1-0.2l1.8-4c0-0.1,0-0.1,0.1-0.2l1.7-6.6l0.9-3.5c0.1-0.3,0.3-0.5,0.5-0.7l2.4-1.2c0.1-0.1,0.3-0.2,0.4-0.3v0  C68.5,4.6,67.7,3.4,66.7,3.8z" style="" fill="#fff"></path><polygon points="55,62.1 53.6,70.1 51.3,74.6 50.9,77.6 51.1,83.9 50.9,86.3 49.2,86.8 48.8,88.4 49,90.5 48,94.5 48,96.1   49.7,96.1 50.8,94.1 53.2,90.3 54.3,84.8 56.3,79.5 57.1,75.1 57.8,72.8 59,70.3 " style="" fill="#fff"></polygon></svg>